<?xml version="1.0" encoding="utf-8"?>
<svg viewBox="67.106 178.705 402.621 83.042" xmlns="http://www.w3.org/2000/svg" xmlns:xlink="http://www.w3.org/1999/xlink" xmlns:bx="https://boxy-svg.com">
  <defs>
    <linearGradient id="gradient-2-1" gradientUnits="userSpaceOnUse" x1="100.757" y1="175.316" x2="100.757" y2="263.64" gradientTransform="matrix(0.727009, 0, 0, 0.727009, 51.165433, 61.785757)" xlink:href="#gradient-2"/>
    <linearGradient id="gradient-2" bx:pinned="true">
      <stop offset="0" style="stop-color: rgb(6, 72, 0);"/>
      <stop offset="0" style=""/>
      <stop offset="0.377" style="stop-color: rgb(3, 24, 0);"/>
    </linearGradient>
    <linearGradient id="gradient-2-0" gradientUnits="userSpaceOnUse" x1="322.528" y1="185.667" x2="322.528" y2="251.057" xlink:href="#gradient-2"/>
  </defs>
  <path style="isolation: isolate; fill: url(#gradient-2-1); stroke: rgb(255, 255, 255);" d="M 73.417 189.242 C 73.417 189.242 120.362 189.547 142.152 190.893 C 147.734 191.238 153.878 193.116 154.587 193.415 C 158.068 194.884 174.522 200.033 175.392 221.61 C 176.26 243.187 154.16 253.454 154.16 253.454 L 107.042 216.991 C 107.042 216.991 107.042 201.985 86.602 201.21 L 73.417 189.242 Z"/>
  <path d="M 207.888 238.579 Q 202.272 238.579 197.939 236.149 Q 193.605 233.719 191.148 229.304 Q 188.691 224.89 188.691 218.923 Q 188.691 212.956 191.189 208.541 Q 193.686 204.127 198.087 201.697 Q 202.488 199.267 208.104 199.267 Q 211.02 199.267 213.585 199.888 Q 216.15 200.509 218.067 201.481 L 217.419 207.016 Q 215.394 206.044 213.072 205.396 Q 210.75 204.748 208.05 204.748 Q 203.784 204.748 200.922 206.624 Q 198.06 208.501 196.589 211.7 Q 195.117 214.9 195.117 218.923 Q 195.117 222.946 196.562 226.145 Q 198.006 229.345 200.855 231.221 Q 203.703 233.098 207.915 233.098 Q 210.696 233.098 212.978 232.49 Q 215.259 231.883 217.419 230.857 L 218.067 236.392 Q 215.988 237.337 213.437 237.958 Q 210.885 238.579 207.888 238.579 Z" style="fill: url(#gradient-2-0); white-space: pre; isolation: isolate;"/>
  <path d="M 224.003 237.823 L 224.003 200.023 L 247.169 200.023 L 247.169 205.531 L 229.889 205.531 L 229.889 215.332 L 243.227 215.332 L 243.227 220.84 L 229.889 220.84 L 229.889 237.823 Z" style="fill: url(#gradient-2-0); white-space: pre; isolation: isolate;"/>
  <path d="M 252.288 237.823 L 252.288 200.023 L 266.355 200.023 Q 271.809 200.023 276.034 202.264 Q 280.26 204.505 282.663 208.73 Q 285.066 212.956 285.066 218.923 Q 285.066 224.89 282.663 229.115 Q 280.26 233.341 276.034 235.582 Q 271.809 237.823 266.355 237.823 Z M 258.174 232.531 L 266.355 232.531 Q 270.405 232.531 273.132 230.843 Q 275.859 229.156 277.249 226.091 Q 278.64 223.027 278.64 218.923 Q 278.64 214.819 277.249 211.754 Q 275.859 208.69 273.132 207.002 Q 270.405 205.315 266.355 205.315 L 258.174 205.315 Z" style="fill: url(#gradient-2-0); white-space: pre; isolation: isolate;"/>
  <path d="M 312.925 237.823 L 299.425 200.023 L 305.473 200.023 L 316.597 231.532 L 315.112 231.532 L 326.236 200.023 L 332.311 200.023 L 318.811 237.823 Z" style="fill: url(#gradient-2-0); white-space: pre; isolation: isolate;"/>
  <path d="M 336.898 237.823 L 336.898 211.147 L 342.541 211.147 L 342.541 237.823 Z M 336.898 205.963 L 336.898 200.023 L 342.541 200.023 L 342.541 205.963 Z" style="fill: url(#gradient-2-0); white-space: pre; isolation: isolate;"/>
  <path d="M 361.845 238.363 Q 357.066 238.363 353.853 236.432 Q 350.64 234.502 349.007 231.302 Q 347.373 228.103 347.373 224.296 Q 347.373 220.597 348.899 217.492 Q 350.424 214.387 353.354 212.51 Q 356.283 210.634 360.441 210.634 Q 363.978 210.634 366.57 212.065 Q 369.162 213.496 370.553 216.061 Q 371.943 218.626 371.943 222.055 Q 371.943 222.757 371.876 223.513 Q 371.808 224.269 371.646 225.106 L 353.205 225.106 Q 353.556 228.265 354.879 230.114 Q 356.202 231.964 358.173 232.747 Q 360.144 233.53 362.439 233.53 Q 364.491 233.53 366.489 233.057 Q 368.487 232.585 370.242 231.694 L 370.755 236.311 Q 369.216 237.04 366.975 237.701 Q 364.734 238.363 361.845 238.363 Z M 353.529 221.245 L 366.165 221.245 Q 366.165 219.652 365.571 218.342 Q 364.977 217.033 363.695 216.25 Q 362.412 215.467 360.387 215.467 Q 357.417 215.467 355.784 217.033 Q 354.15 218.599 353.529 221.245 Z" style="fill: url(#gradient-2-0); white-space: pre; isolation: isolate;"/>
  <path d="M 382.023 237.823 L 374.112 211.147 L 380.187 211.147 L 385.074 231.289 L 390.474 211.822 L 395.739 211.822 L 401.139 231.289 L 406.053 211.147 L 412.128 211.147 L 404.163 237.823 L 398.655 237.823 L 393.12 219.112 L 387.558 237.823 Z" style="fill: url(#gradient-2-0); white-space: pre; isolation: isolate;"/>
  <path d="M 428.463 238.363 Q 423.684 238.363 420.471 236.432 Q 417.258 234.502 415.625 231.302 Q 413.991 228.103 413.991 224.296 Q 413.991 220.597 415.517 217.492 Q 417.042 214.387 419.972 212.51 Q 422.901 210.634 427.059 210.634 Q 430.596 210.634 433.188 212.065 Q 435.78 213.496 437.171 216.061 Q 438.561 218.626 438.561 222.055 Q 438.561 222.757 438.494 223.513 Q 438.426 224.269 438.264 225.106 L 419.823 225.106 Q 420.174 228.265 421.497 230.114 Q 422.82 231.964 424.791 232.747 Q 426.762 233.53 429.057 233.53 Q 431.109 233.53 433.107 233.057 Q 435.105 232.585 436.86 231.694 L 437.373 236.311 Q 435.834 237.04 433.593 237.701 Q 431.352 238.363 428.463 238.363 Z M 420.147 221.245 L 432.783 221.245 Q 432.783 219.652 432.189 218.342 Q 431.595 217.033 430.313 216.25 Q 429.03 215.467 427.005 215.467 Q 424.035 215.467 422.402 217.033 Q 420.768 218.599 420.147 221.245 Z" style="fill: url(#gradient-2-0); white-space: pre; isolation: isolate;"/>
  <path d="M 443.334 237.823 L 443.334 211.147 L 448.302 211.147 L 448.707 214.873 Q 450.327 212.929 452.176 211.768 Q 454.026 210.607 456.186 210.607 Q 456.834 210.607 457.401 210.742 L 456.915 216.601 Q 456.456 216.493 455.983 216.439 Q 455.511 216.385 454.998 216.385 Q 453.054 216.385 451.447 217.262 Q 449.841 218.14 449.166 219.247 L 449.166 237.823 Z" style="fill: url(#gradient-2-0); white-space: pre; isolation: isolate;"/>
</svg>