<?xml version="1.0" encoding="utf-8"?>
<svg viewBox="124.23 195.407 190.828 57.29" xmlns="http://www.w3.org/2000/svg">
  <g>
    <path d="M 146.198 245.671 C 143.654 245.671 141.66 245.193 140.216 244.238 C 138.772 243.282 137.763 241.977 137.192 240.322 C 136.62 238.668 136.334 236.762 136.334 234.603 L 136.334 222.754 C 136.334 220.486 136.62 218.518 137.192 216.849 C 137.763 215.183 138.772 213.898 140.216 212.995 C 141.66 212.094 143.654 211.643 146.198 211.643 C 148.6 211.643 150.48 212.033 151.837 212.813 C 153.195 213.59 154.159 214.704 154.731 216.154 C 155.303 217.602 155.589 219.282 155.589 221.196 L 155.589 223.984 L 149.499 223.984 L 149.499 221.114 C 149.499 220.184 149.449 219.337 149.35 218.572 C 149.25 217.806 148.979 217.198 148.536 216.746 C 148.092 216.296 147.327 216.072 146.243 216.072 C 145.156 216.072 144.362 216.311 143.86 216.789 C 143.36 217.266 143.039 217.908 142.897 218.714 C 142.753 219.522 142.681 220.431 142.681 221.442 L 142.681 235.873 C 142.681 237.075 142.782 238.067 142.983 238.846 C 143.182 239.626 143.546 240.213 144.076 240.608 C 144.605 241.005 145.328 241.203 146.243 241.203 C 147.299 241.203 148.049 240.964 148.492 240.486 C 148.934 240.009 149.213 239.373 149.327 238.579 C 149.442 237.787 149.499 236.899 149.499 235.915 L 149.499 232.923 L 155.589 232.923 L 155.589 235.587 C 155.589 237.555 155.318 239.298 154.776 240.815 C 154.231 242.331 153.28 243.52 151.923 244.38 C 150.565 245.241 148.657 245.671 146.198 245.671 Z" style="fill: rgb(0, 43, 9); line-height: 26.3382px; white-space: pre;"/>
    <path d="M 159.995 245.222 L 159.995 212.011 L 174.276 212.011 L 174.276 216.193 L 166.343 216.193 L 166.343 225.87 L 172.817 225.87 L 172.817 230.092 L 166.343 230.092 L 166.343 245.222 L 159.995 245.222 Z" style="fill: rgb(0, 43, 9); line-height: 26.3382px; white-space: pre;"/>
    <path d="M 177.71 245.222 L 177.71 212.011 L 185.9 212.011 C 188.732 212.011 190.941 212.38 192.527 213.119 C 194.113 213.856 195.242 214.99 195.914 216.521 C 196.585 218.052 196.921 219.993 196.921 222.344 L 196.921 234.478 C 196.921 236.884 196.585 238.887 195.914 240.486 C 195.242 242.086 194.127 243.275 192.568 244.052 C 191.012 244.832 188.875 245.222 186.157 245.222 L 177.71 245.222 Z M 184.057 241 L 185.986 241 C 187.445 241 188.489 240.754 189.118 240.262 C 189.747 239.77 190.133 239.052 190.275 238.108 C 190.419 237.165 190.491 236.009 190.491 234.642 L 190.491 221.934 C 190.491 220.595 190.39 219.516 190.189 218.696 C 189.99 217.876 189.576 217.275 188.947 216.892 C 188.318 216.509 187.302 216.318 185.9 216.318 L 184.057 216.318 L 184.057 241 Z" style="fill: rgb(0, 43, 9); line-height: 26.3382px; white-space: pre;"/>
  </g>
  <g>
    <path d="M 230.766 234.283 L 226.691 214.033 L 229.966 214.033 L 232.641 228.358 L 235.141 214.033 L 238.491 214.033 L 234.416 234.283 L 230.766 234.283 Z" style="fill: rgb(0, 43, 9); white-space: pre;"/>
    <path d="M 240.433 234.283 L 240.433 219.833 L 243.833 219.833 L 243.833 234.283 L 240.433 234.283 Z M 240.433 217.533 L 240.433 214.708 L 243.833 214.708 L 243.833 217.533 L 240.433 217.533 Z" style="fill: rgb(0, 43, 9); white-space: pre;"/>
    <path d="M 250.896 234.508 C 249.813 234.508 248.929 234.304 248.246 233.896 C 247.563 233.487 247.059 232.887 246.734 232.096 C 246.409 231.304 246.246 230.35 246.246 229.233 L 246.246 224.883 C 246.246 223.733 246.409 222.766 246.734 221.983 C 247.059 221.2 247.567 220.608 248.259 220.208 C 248.95 219.808 249.829 219.608 250.896 219.608 C 252.046 219.608 252.942 219.825 253.584 220.258 C 254.225 220.691 254.684 221.321 254.959 222.146 C 255.234 222.971 255.371 223.975 255.371 225.158 L 255.371 227.208 L 249.621 227.208 L 249.621 230.058 C 249.621 230.525 249.667 230.908 249.759 231.208 C 249.85 231.508 249.996 231.725 250.196 231.858 C 250.396 231.991 250.638 232.058 250.921 232.058 C 251.221 232.058 251.463 231.987 251.646 231.846 C 251.829 231.704 251.963 231.496 252.046 231.221 C 252.129 230.946 252.171 230.6 252.171 230.183 L 252.171 228.983 L 255.346 228.983 L 255.346 229.958 C 255.346 231.425 254.979 232.55 254.246 233.333 C 253.513 234.116 252.396 234.508 250.896 234.508 Z M 249.621 225.533 L 252.171 225.533 L 252.171 224.158 C 252.171 223.658 252.129 223.254 252.046 222.946 C 251.963 222.637 251.829 222.412 251.646 222.271 C 251.463 222.129 251.204 222.058 250.871 222.058 C 250.571 222.058 250.329 222.133 250.146 222.283 C 249.963 222.433 249.829 222.683 249.746 223.033 C 249.663 223.383 249.621 223.883 249.621 224.533 L 249.621 225.533 Z" style="fill: rgb(0, 43, 9); white-space: pre;"/>
    <path d="M 259.204 234.283 L 256.979 219.833 L 259.804 219.833 L 261.079 229.208 L 262.579 219.833 L 265.104 219.833 L 266.529 229.308 L 267.904 219.833 L 270.579 219.833 L 268.304 234.283 L 265.429 234.283 L 263.829 225.158 L 262.154 234.283 L 259.204 234.283 Z" style="fill: rgb(0, 43, 9); white-space: pre;"/>
    <path d="M 276.868 234.508 C 275.785 234.508 274.901 234.304 274.218 233.896 C 273.535 233.487 273.031 232.887 272.706 232.096 C 272.381 231.304 272.218 230.35 272.218 229.233 L 272.218 224.883 C 272.218 223.733 272.381 222.766 272.706 221.983 C 273.031 221.2 273.539 220.608 274.231 220.208 C 274.922 219.808 275.801 219.608 276.868 219.608 C 278.018 219.608 278.914 219.825 279.556 220.258 C 280.197 220.691 280.656 221.321 280.931 222.146 C 281.206 222.971 281.343 223.975 281.343 225.158 L 281.343 227.208 L 275.593 227.208 L 275.593 230.058 C 275.593 230.525 275.639 230.908 275.731 231.208 C 275.822 231.508 275.968 231.725 276.168 231.858 C 276.368 231.991 276.61 232.058 276.893 232.058 C 277.193 232.058 277.435 231.987 277.618 231.846 C 277.801 231.704 277.935 231.496 278.018 231.221 C 278.101 230.946 278.143 230.6 278.143 230.183 L 278.143 228.983 L 281.318 228.983 L 281.318 229.958 C 281.318 231.425 280.951 232.55 280.218 233.333 C 279.485 234.116 278.368 234.508 276.868 234.508 Z M 275.593 225.533 L 278.143 225.533 L 278.143 224.158 C 278.143 223.658 278.101 223.254 278.018 222.946 C 277.935 222.637 277.801 222.412 277.618 222.271 C 277.435 222.129 277.176 222.058 276.843 222.058 C 276.543 222.058 276.301 222.133 276.118 222.283 C 275.935 222.433 275.801 222.683 275.718 223.033 C 275.635 223.383 275.593 223.883 275.593 224.533 L 275.593 225.533 Z" style="fill: rgb(0, 43, 9); white-space: pre;"/>
    <path d="M 283.71 234.283 L 283.71 219.833 L 287.11 219.833 L 287.11 222.058 C 287.61 221.208 288.11 220.596 288.61 220.221 C 289.11 219.846 289.66 219.658 290.26 219.658 C 290.36 219.658 290.448 219.662 290.523 219.671 C 290.598 219.679 290.685 219.691 290.785 219.708 L 290.785 223.233 C 290.585 223.15 290.364 223.079 290.123 223.021 C 289.881 222.962 289.635 222.933 289.385 222.933 C 288.935 222.933 288.527 223.041 288.16 223.258 C 287.793 223.475 287.443 223.833 287.11 224.333 L 287.11 234.283 L 283.71 234.283 Z" style="fill: rgb(0, 43, 9); white-space: pre;"/>
  </g>
  <g>
    <path style="fill: none; stroke-width: 5px; stroke: rgb(0, 43, 9);" d="M 130.98 199.789 C 130.98 199.789 162.098 200.322 185.811 204.114 C 209.525 207.905 215.936 226.22 215.936 226.22 C 218.438 230.474 222.077 242.392 250.191 243.585 C 278.305 244.778 310.746 246.264 310.746 246.264" transform="matrix(0.999997, -0.002347, 0.002347, 0.999997, -0.522835, 0.51898)"/>
    <g>
      <path style="paint-order: fill; fill: none; stroke-width: 5px; stroke: rgb(0, 43, 9);" d="M 212.887 220.58 C 212.887 220.58 220.866 232.156 202.935 245.905"/>
    </g>
  </g>
</svg>