<?xml version="1.0" encoding="utf-8"?>
<svg viewBox="124.23 189.018 303.306 69.227" xmlns="http://www.w3.org/2000/svg">
  <path d="M 102.996 273.985 Q 102.011 273.985 101.349 273.601 Q 100.688 273.216 100.35 272.474 Q 100.013 271.731 99.972 270.651 L 101.687 270.314 Q 101.714 270.948 101.842 271.434 Q 101.97 271.92 102.233 272.183 Q 102.497 272.447 102.929 272.447 Q 103.415 272.447 103.617 272.156 Q 103.819 271.866 103.819 271.421 Q 103.819 270.705 103.495 270.246 Q 103.172 269.788 102.632 269.329 L 101.255 268.114 Q 100.674 267.614 100.33 267 Q 99.986 266.386 99.986 265.482 Q 99.986 264.186 100.742 263.484 Q 101.498 262.782 102.807 262.782 Q 103.576 262.782 104.089 263.018 Q 104.602 263.254 104.906 263.673 Q 105.21 264.091 105.358 264.624 Q 105.507 265.158 105.547 265.752 L 103.846 266.048 Q 103.819 265.536 103.732 265.131 Q 103.644 264.726 103.421 264.496 Q 103.199 264.267 102.767 264.267 Q 102.321 264.267 102.085 264.557 Q 101.849 264.847 101.849 265.279 Q 101.849 265.833 102.078 266.19 Q 102.308 266.548 102.74 266.926 L 104.103 268.127 Q 104.778 268.694 105.257 269.457 Q 105.736 270.219 105.736 271.299 Q 105.736 272.082 105.392 272.69 Q 105.048 273.297 104.434 273.641 Q 103.819 273.985 102.996 273.985 Z" transform="matrix(3.176918, 0, 0, 3.037418, -170.734589, -586.535583)" style="fill: rgb(0, 43, 9); line-height: 26.3382px; white-space: pre;"/>
  <path d="M 108.038 273.958 Q 107.579 273.958 107.282 273.722 Q 106.986 273.486 106.851 273.088 Q 106.716 272.69 106.716 272.244 L 106.716 266.035 L 108.551 266.035 L 108.551 271.907 Q 108.551 272.258 108.666 272.453 Q 108.781 272.649 109.091 272.649 Q 109.294 272.649 109.503 272.541 Q 109.712 272.433 109.915 272.285 L 109.915 266.035 L 111.75 266.035 L 111.75 273.837 L 109.915 273.837 L 109.915 273.095 Q 109.523 273.473 109.051 273.716 Q 108.578 273.958 108.038 273.958 Z" transform="matrix(3.176918, 0, 0, 3.037418, -170.734589, -586.535583)" style="fill: rgb(0, 43, 9); line-height: 26.3382px; white-space: pre;"/>
  <path d="M 116.53 273.958 Q 116.098 273.958 115.72 273.756 Q 115.342 273.554 115.018 273.257 L 115.018 273.837 L 113.182 273.837 L 113.182 262.903 L 115.018 262.903 L 115.018 266.629 Q 115.355 266.305 115.754 266.109 Q 116.152 265.914 116.611 265.914 Q 117.137 265.914 117.475 266.156 Q 117.812 266.399 118.001 266.798 Q 118.19 267.196 118.264 267.648 Q 118.338 268.1 118.338 268.519 L 118.338 271.164 Q 118.338 271.934 118.156 272.568 Q 117.974 273.203 117.576 273.581 Q 117.178 273.958 116.53 273.958 Z M 115.828 272.676 Q 116.125 272.676 116.267 272.48 Q 116.408 272.285 116.455 271.954 Q 116.503 271.623 116.503 271.232 L 116.503 268.438 Q 116.503 268.073 116.449 267.783 Q 116.395 267.493 116.253 267.317 Q 116.111 267.142 115.814 267.142 Q 115.598 267.142 115.396 267.243 Q 115.193 267.344 115.018 267.466 L 115.018 272.393 Q 115.193 272.514 115.403 272.595 Q 115.612 272.676 115.828 272.676 Z" transform="matrix(3.176918, 0, 0, 3.037418, -170.734589, -586.535583)" style="fill: rgb(0, 43, 9); line-height: 26.3382px; white-space: pre;"/>
  <path d="M 230.058 237.236 L 230.058 204.836 L 235.978 204.836 L 235.978 233.156 L 243.818 233.156 L 243.818 237.236 Z" style="fill: rgb(0, 43, 9); white-space: pre;"/>
  <path d="M 251.008 237.596 Q 249.448 237.596 248.328 236.776 Q 247.208 235.956 246.608 234.696 Q 246.008 233.436 246.008 232.076 Q 246.008 229.916 246.808 228.436 Q 247.608 226.956 248.928 225.956 Q 250.248 224.956 251.928 224.216 Q 253.608 223.476 255.328 222.876 L 255.328 220.876 Q 255.328 219.876 255.188 219.196 Q 255.048 218.516 254.668 218.156 Q 254.288 217.796 253.488 217.796 Q 252.808 217.796 252.388 218.116 Q 251.968 218.436 251.788 219.016 Q 251.608 219.596 251.568 220.356 L 251.488 221.756 L 246.328 221.556 Q 246.448 217.556 248.308 215.656 Q 250.168 213.756 253.968 213.756 Q 257.448 213.756 259.028 215.676 Q 260.608 217.596 260.608 220.876 L 260.608 231.556 Q 260.608 232.836 260.668 233.876 Q 260.728 234.916 260.828 235.756 Q 260.928 236.596 261.008 237.236 L 256.128 237.236 Q 256.008 236.436 255.828 235.416 Q 255.648 234.396 255.568 233.916 Q 255.168 235.316 254.048 236.456 Q 252.928 237.596 251.008 237.596 Z M 253.008 233.556 Q 253.528 233.556 253.988 233.296 Q 254.448 233.036 254.808 232.676 Q 255.168 232.316 255.328 232.036 L 255.328 225.596 Q 254.448 226.116 253.668 226.636 Q 252.888 227.156 252.308 227.776 Q 251.728 228.396 251.428 229.116 Q 251.128 229.836 251.128 230.796 Q 251.128 232.076 251.628 232.816 Q 252.128 233.556 253.008 233.556 Z" style="fill: rgb(0, 43, 9); white-space: pre;"/>
  <path d="M 264.768 243.516 L 264.768 239.596 Q 266.168 239.596 267.048 239.436 Q 267.928 239.276 268.328 238.876 Q 268.728 238.476 268.728 237.756 Q 268.728 237.236 268.468 236.116 Q 268.208 234.996 267.888 233.676 L 262.808 214.116 L 268.088 214.116 L 271.088 229.356 L 273.688 214.116 L 278.928 214.116 L 273.528 238.156 Q 273.088 240.196 272.048 241.356 Q 271.008 242.516 269.448 243.016 Q 267.888 243.516 265.808 243.516 Z" style="fill: rgb(0, 43, 9); white-space: pre;"/>
  <path d="M 288.439 237.596 Q 285.839 237.596 284.199 236.616 Q 282.559 235.636 281.779 233.736 Q 280.999 231.836 280.999 229.156 L 280.999 222.196 Q 280.999 219.436 281.779 217.556 Q 282.559 215.676 284.219 214.716 Q 285.879 213.756 288.439 213.756 Q 291.199 213.756 292.739 214.796 Q 294.279 215.836 294.939 217.816 Q 295.599 219.796 295.599 222.636 L 295.599 225.916 L 286.399 225.916 L 286.399 230.476 Q 286.399 231.596 286.619 232.316 Q 286.839 233.036 287.319 233.356 Q 287.799 233.676 288.479 233.676 Q 289.199 233.676 289.639 233.336 Q 290.079 232.996 290.279 232.336 Q 290.479 231.676 290.479 230.676 L 290.479 228.756 L 295.559 228.756 L 295.559 230.316 Q 295.559 233.836 293.799 235.716 Q 292.039 237.596 288.439 237.596 Z M 286.399 223.236 L 290.479 223.236 L 290.479 221.036 Q 290.479 219.836 290.279 219.096 Q 290.079 218.356 289.639 218.016 Q 289.199 217.676 288.399 217.676 Q 287.679 217.676 287.239 218.036 Q 286.799 218.396 286.599 219.236 Q 286.399 220.076 286.399 221.636 Z" style="fill: rgb(0, 43, 9); white-space: pre;"/>
  <path d="M 299.404 237.236 L 299.404 214.116 L 304.844 214.116 L 304.844 217.676 Q 306.044 215.636 307.244 214.736 Q 308.444 213.836 309.884 213.836 Q 310.124 213.836 310.304 213.856 Q 310.484 213.876 310.724 213.916 L 310.724 219.556 Q 310.244 219.356 309.664 219.216 Q 309.084 219.076 308.484 219.076 Q 307.404 219.076 306.524 219.596 Q 305.644 220.116 304.844 221.316 L 304.844 237.236 Z" style="fill: rgb(0, 43, 9); white-space: pre;"/>
  <path style="fill: none; stroke-width: 5px; stroke: rgb(0, 43, 9);" d="M 130.98 199.77 C 130.98 199.77 162.098 200.303 185.811 204.095 C 209.525 207.886 215.936 226.201 215.936 226.201 C 217.934 230.789 222.552 245.461 260.918 248.289 C 299.284 251.117 313.152 250.21 313.152 250.21" transform="matrix(0.999997, -0.002347, 0.002347, 0.999997, -0.522787, 0.538336)"/>
  <path style="paint-order: fill; fill: none; stroke-width: 5px; stroke: rgb(0, 43, 9);" d="M 216.306 227.502 C 216.306 227.502 216.246 237.434 203.659 248.214"/>
  <path d="M 352.474 251.925 Q 346.549 251.925 343.436 248.55 Q 340.324 245.175 340.324 239.025 L 340.324 210.825 Q 340.324 204.675 343.436 201.3 Q 346.549 197.925 352.474 197.925 Q 358.399 197.925 361.511 201.3 Q 364.624 204.675 364.624 210.825 L 364.624 216.375 L 356.824 216.375 L 356.824 210.3 Q 356.824 205.425 352.699 205.425 Q 348.574 205.425 348.574 210.3 L 348.574 239.625 Q 348.574 244.425 352.699 244.425 Q 356.824 244.425 356.824 239.625 L 356.824 231.6 L 364.624 231.6 L 364.624 239.025 Q 364.624 245.175 361.511 248.55 Q 358.399 251.925 352.474 251.925 Z" style="white-space: pre;"/>
  <path d="M 369.571 198.675 L 391.396 198.675 L 391.396 206.175 L 377.821 206.175 L 377.821 220.8 L 388.471 220.8 L 388.471 228.3 L 377.821 228.3 L 377.821 251.175 L 369.571 251.175 Z" style="white-space: pre;"/>
  <path d="M 395.371 198.675 L 407.971 198.675 Q 414.121 198.675 417.196 201.975 Q 420.271 205.275 420.271 211.65 L 420.271 238.2 Q 420.271 244.575 417.196 247.875 Q 414.121 251.175 407.971 251.175 L 395.371 251.175 Z M 407.821 243.675 Q 409.846 243.675 410.934 242.475 Q 412.021 241.275 412.021 238.575 L 412.021 211.275 Q 412.021 208.575 410.934 207.375 Q 409.846 206.175 407.821 206.175 L 403.621 206.175 L 403.621 243.675 Z" style="white-space: pre;"/>
</svg>