<svg class="border shadow-md" viewBox="0 0 1351.68 760.32" style="width: 1351.68px; height: 760.32px;" xmlns="http://www.w3.org/2000/svg" preserveAspectRatio="none"><rect class="bg" id="bg" x="0" y="0" width="1351.68" height="760.32" fill="#ffffff"></rect><g transform="rotate(0 675.84 380.16)"><path d="M -1551.68 -96.72 S -785.84 -220.72
            0.00 -96.72 765.84 -160.08
            1551.68 -96.72 2317.52 -160.08
            3103.36 -96.72 h 110 V 960.32 H -1551.68 Z" fill="#DDF4E0" id="-1"></path><path d="M -1551.68 30.00 S -785.84 -33.36
            0.00 30.00 765.84 -51.00
            1551.68 30.00 2317.52 -33.36
            3103.36 30.00 h 110 V 960.32 H -1551.68 Z" fill="#c5eccb" id="0"></path><path d="M -1551.68 156.72 S -785.84 73.72
            0.00 156.72 765.84 49.72
            1551.68 156.72 2317.52 56.72
            3103.36 156.72 h 110 V 960.32 H -1551.68 Z" fill="#ade4b6" id="1"></path><path d="M -1551.68 283.44 S -785.84 184.44
            0.00 283.44 708.68 220.08
            1551.68 283.44 2317.52 166.44
            3103.36 283.44 h 110 V 960.32 H -1551.68 Z" fill="#95dca1" id="2"></path><path d="M -1551.68 410.16 S -785.84 346.80
            0.00 410.16 765.84 346.80
            1551.68 410.16 2226.36 294.16
            3103.36 410.16 h 110 V 960.32 H -1551.68 Z" fill="#7dd48c" id="3"></path><path id="4" d="M -1551.68 536.88 S -785.84 427.88
            0.00 536.88 682.68 456.88
            1551.68 536.88 2141.36 473.52
            3103.36 536.88 h 110 V 960.32 H -1551.68 Z" fill="#65cc77"></path><path id="5" d="M -1551.68 663.60 S -979.00 600.24
            0.00 663.60 544.68 550.60
            1551.68 663.60 2235.36 555.60
            3103.36 663.60 h 110 V 960.32 H -1551.68 Z" fill="#4dc462"></path></g></svg>