<svg id="visual" viewBox="0 0 1920 1080" width="1920" height="1080" xmlns="http://www.w3.org/2000/svg" xmlns:xlink="http://www.w3.org/1999/xlink" version="1.1"><rect width="1920" height="1080" fill="#7DD48C"></rect><g><g transform="translate(1046 15)"><path d="M0 -25.7L22.2 -12.8L22.2 12.8L0 25.7L-22.2 12.8L-22.2 -12.8Z" fill="none" stroke="#001c00" stroke-width="2"></path></g><g transform="translate(1203 323)"><path d="M0 -22L19.1 -11L19.1 11L0 22L-19.1 11L-19.1 -11Z" fill="none" stroke="#001c00" stroke-width="2"></path></g><g transform="translate(1112 171)"><path d="M0 -22L19.1 -11L19.1 11L0 22L-19.1 11L-19.1 -11Z" fill="none" stroke="#001c00" stroke-width="2"></path></g><g transform="translate(1054 82)"><path d="M0 -21L18.2 -10.5L18.2 10.5L0 21L-18.2 10.5L-18.2 -10.5Z" fill="none" stroke="#001c00" stroke-width="2"></path></g><g transform="translate(313 261)"><path d="M0 -19L16.5 -9.5L16.5 9.5L0 19L-16.5 9.5L-16.5 -9.5Z" fill="none" stroke="#001c00" stroke-width="2"></path></g><g transform="translate(1336 87)"><path d="M0 -22L19.1 -11L19.1 11L0 22L-19.1 11L-19.1 -11Z" stroke="#001c00" fill="none" stroke-width="2"></path></g><g transform="translate(1265 745)"><path d="M0 -19L16.5 -9.5L16.5 9.5L0 19L-16.5 9.5L-16.5 -9.5Z" stroke="#001c00" fill="none" stroke-width="2"></path></g><g transform="translate(172 427)"><path d="M0 -21L18.2 -10.5L18.2 10.5L0 21L-18.2 10.5L-18.2 -10.5Z" stroke="#001c00" fill="none" stroke-width="2"></path></g><g transform="translate(1353 506)"><path d="M0 -19L16.5 -9.5L16.5 9.5L0 19L-16.5 9.5L-16.5 -9.5Z" stroke="#001c00" fill="none" stroke-width="2"></path></g><g transform="translate(1657 198)"><path d="M0 -24L20.8 -12L20.8 12L0 24L-20.8 12L-20.8 -12Z" stroke="#001c00" fill="none" stroke-width="2"></path></g><g transform="translate(1029 839)"><path d="M0 -23L19.9 -11.5L19.9 11.5L0 23L-19.9 11.5L-19.9 -11.5Z" stroke="#001c00" fill="none" stroke-width="2"></path></g><g transform="translate(314 781)"><path d="M0 -21L18.2 -10.5L18.2 10.5L0 21L-18.2 10.5L-18.2 -10.5Z" stroke="#001c00" fill="none" stroke-width="2"></path></g><g transform="translate(808 895)"><path d="M0 -22L19.1 -11L19.1 11L0 22L-19.1 11L-19.1 -11Z" stroke="#001c00" fill="none" stroke-width="2"></path></g><g transform="translate(1677 606)"><path d="M0 -22L19.1 -11L19.1 11L0 22L-19.1 11L-19.1 -11Z" stroke="#001c00" fill="none" stroke-width="2"></path></g><g transform="translate(1009 648)"><path d="M0 -24L20.8 -12L20.8 12L0 24L-20.8 12L-20.8 -12Z" stroke="#001c00" fill="none" stroke-width="2"></path></g><g transform="translate(1086 512)"><path d="M0 -24L20.8 -12L20.8 12L0 24L-20.8 12L-20.8 -12Z" stroke="#001c00" fill="none" stroke-width="2"></path></g><g transform="translate(782 580)"><path d="M0 -24L20.8 -12L20.8 12L0 24L-20.8 12L-20.8 -12Z" stroke="#001c00" fill="none" stroke-width="2"></path></g><g transform="translate(1427 498)"><path d="M0 -19L16.5 -9.5L16.5 9.5L0 19L-16.5 9.5L-16.5 -9.5Z" stroke="#001c00" fill="none" stroke-width="2"></path></g><g transform="translate(564 330)"><path d="M0 -19L16.5 -9.5L16.5 9.5L0 19L-16.5 9.5L-16.5 -9.5Z" stroke="#001c00" fill="none" stroke-width="2"></path></g><g transform="translate(807 342)"><path d="M0 -21L18.2 -10.5L18.2 10.5L0 21L-18.2 10.5L-18.2 -10.5Z" stroke="#001c00" fill="none" stroke-width="2"></path></g><g transform="translate(61 276)"><path d="M0 -22L19.1 -11L19.1 11L0 22L-19.1 11L-19.1 -11Z" stroke="#001c00" fill="none" stroke-width="2"></path></g><g transform="translate(969 829)"><path d="M0 -24L20.8 -12L20.8 12L0 24L-20.8 12L-20.8 -12Z" stroke="#001c00" fill="none" stroke-width="2"></path></g><g transform="translate(184 323)"><path d="M0 -21L18.2 -10.5L18.2 10.5L0 21L-18.2 10.5L-18.2 -10.5Z" stroke="#001c00" fill="none" stroke-width="2"></path></g><g transform="translate(831 537)"><path d="M0 -21L18.2 -10.5L18.2 10.5L0 21L-18.2 10.5L-18.2 -10.5Z" stroke="#001c00" fill="none" stroke-width="2"></path></g><g transform="translate(637 691)"><path d="M0 -24L20.8 -12L20.8 12L0 24L-20.8 12L-20.8 -12Z" stroke="#001c00" fill="none" stroke-width="2"></path></g><g transform="translate(1823 374)"><path d="M0 -21L18.2 -10.5L18.2 10.5L0 21L-18.2 10.5L-18.2 -10.5Z" stroke="#001c00" fill="none" stroke-width="2"></path></g><g transform="translate(825 24)"><path d="M0 -22L19.1 -11L19.1 11L0 22L-19.1 11L-19.1 -11Z" stroke="#001c00" fill="none" stroke-width="2"></path></g><g transform="translate(1415 985)"><path d="M0 -19L16.5 -9.5L16.5 9.5L0 19L-16.5 9.5L-16.5 -9.5Z" stroke="#001c00" fill="none" stroke-width="2"></path></g><g transform="translate(367 464)"><path d="M0 -19L16.5 -9.5L16.5 9.5L0 19L-16.5 9.5L-16.5 -9.5Z" stroke="#001c00" fill="none" stroke-width="2"></path></g><g transform="translate(908 478)"><path d="M0 -23L19.9 -11.5L19.9 11.5L0 23L-19.9 11.5L-19.9 -11.5Z" stroke="#001c00" fill="none" stroke-width="2"></path></g><g transform="translate(1866 527)"><path d="M0 -19L16.5 -9.5L16.5 9.5L0 19L-16.5 9.5L-16.5 -9.5Z" stroke="#001c00" fill="none" stroke-width="2"></path></g><g transform="translate(678 114)"><path d="M0 -20L17.3 -10L17.3 10L0 20L-17.3 10L-17.3 -10Z" stroke="#001c00" fill="none" stroke-width="2"></path></g><g transform="translate(1466 902)"><path d="M0 -21L18.2 -10.5L18.2 10.5L0 21L-18.2 10.5L-18.2 -10.5Z" stroke="#001c00" fill="none" stroke-width="2"></path></g><g transform="translate(1812 201)"><path d="M0 -21L18.2 -10.5L18.2 10.5L0 21L-18.2 10.5L-18.2 -10.5Z" stroke="#001c00" fill="none" stroke-width="2"></path></g><g transform="translate(1350 1071)"><path d="M0 -21L18.2 -10.5L18.2 10.5L0 21L-18.2 10.5L-18.2 -10.5Z" stroke="#001c00" fill="none" stroke-width="2"></path></g><g transform="translate(88 381)"><path d="M0 -20L17.3 -10L17.3 10L0 20L-17.3 10L-17.3 -10Z" stroke="#001c00" fill="none" stroke-width="2"></path></g><g transform="translate(1498 463)"><path d="M0 -20L17.3 -10L17.3 10L0 20L-17.3 10L-17.3 -10Z" stroke="#001c00" fill="none" stroke-width="2"></path></g><g transform="translate(1153 119)"><path d="M0 -22L19.1 -11L19.1 11L0 22L-19.1 11L-19.1 -11Z" stroke="#001c00" fill="none" stroke-width="2"></path></g><g transform="translate(299 532)"><path d="M0 -20L17.3 -10L17.3 10L0 20L-17.3 10L-17.3 -10Z" stroke="#001c00" fill="none" stroke-width="2"></path></g><g transform="translate(779 211)"><path d="M0 -19L16.5 -9.5L16.5 9.5L0 19L-16.5 9.5L-16.5 -9.5Z" stroke="#001c00" fill="none" stroke-width="2"></path></g><g transform="translate(1536 293)"><path d="M0 -21L18.2 -10.5L18.2 10.5L0 21L-18.2 10.5L-18.2 -10.5Z" stroke="#001c00" fill="none" stroke-width="2"></path></g><g transform="translate(509 16)"><path d="M0 -22L19.1 -11L19.1 11L0 22L-19.1 11L-19.1 -11Z" stroke="#001c00" fill="none" stroke-width="2"></path></g><g transform="translate(1757 378)"><path d="M0 -21L18.2 -10.5L18.2 10.5L0 21L-18.2 10.5L-18.2 -10.5Z" stroke="#001c00" fill="none" stroke-width="2"></path></g><g transform="translate(1783 1045)"><path d="M0 -24L20.8 -12L20.8 12L0 24L-20.8 12L-20.8 -12Z" stroke="#001c00" fill="none" stroke-width="2"></path></g><g transform="translate(1127 725)"><path d="M0 -23L19.9 -11.5L19.9 11.5L0 23L-19.9 11.5L-19.9 -11.5Z" stroke="#001c00" fill="none" stroke-width="2"></path></g><g transform="translate(514 936)"><path d="M0 -22L19.1 -11L19.1 11L0 22L-19.1 11L-19.1 -11Z" stroke="#001c00" fill="none" stroke-width="2"></path></g><g transform="translate(739 687)"><path d="M0 -24L20.8 -12L20.8 12L0 24L-20.8 12L-20.8 -12Z" stroke="#001c00" fill="none" stroke-width="2"></path></g><g transform="translate(662 604)"><path d="M0 -21L18.2 -10.5L18.2 10.5L0 21L-18.2 10.5L-18.2 -10.5Z" stroke="#001c00" fill="none" stroke-width="2"></path></g><g transform="translate(1396 349)"><path d="M0 -22L19.1 -11L19.1 11L0 22L-19.1 11L-19.1 -11Z" stroke="#001c00" fill="none" stroke-width="2"></path></g><g transform="translate(898 105)"><path d="M0 -20L17.3 -10L17.3 10L0 20L-17.3 10L-17.3 -10Z" stroke="#001c00" fill="none" stroke-width="2"></path></g><g transform="translate(1864 441)"><path d="M0 -20L17.3 -10L17.3 10L0 20L-17.3 10L-17.3 -10Z" stroke="#001c00" fill="none" stroke-width="2"></path></g><g transform="translate(1868 743)"><path d="M0 -22L19.1 -11L19.1 11L0 22L-19.1 11L-19.1 -11Z" stroke="#001c00" fill="none" stroke-width="2"></path></g><g transform="translate(862 928)"><path d="M0 -21L18.2 -10.5L18.2 10.5L0 21L-18.2 10.5L-18.2 -10.5Z" stroke="#001c00" fill="none" stroke-width="2"></path></g><g transform="translate(894 288)"><path d="M0 -24L20.8 -12L20.8 12L0 24L-20.8 12L-20.8 -12Z" stroke="#001c00" fill="none" stroke-width="2"></path></g><g transform="translate(459 669)"><path d="M0 -21L18.2 -10.5L18.2 10.5L0 21L-18.2 10.5L-18.2 -10.5Z" stroke="#001c00" fill="none" stroke-width="2"></path></g><g transform="translate(382 873)"><path d="M0 -23L19.9 -11.5L19.9 11.5L0 23L-19.9 11.5L-19.9 -11.5Z" stroke="#001c00" fill="none" stroke-width="2"></path></g><g transform="translate(1054 226)"><path d="M0 -22L19.1 -11L19.1 11L0 22L-19.1 11L-19.1 -11Z" stroke="#001c00" fill="none" stroke-width="2"></path></g><g transform="translate(1494 207)"><path d="M0 -20L17.3 -10L17.3 10L0 20L-17.3 10L-17.3 -10Z" stroke="#001c00" fill="none" stroke-width="2"></path></g><g transform="translate(1270 845)"><path d="M0 -21L18.2 -10.5L18.2 10.5L0 21L-18.2 10.5L-18.2 -10.5Z" stroke="#001c00" fill="none" stroke-width="2"></path></g><g transform="translate(1351 697)"><path d="M0 -20L17.3 -10L17.3 10L0 20L-17.3 10L-17.3 -10Z" stroke="#001c00" fill="none" stroke-width="2"></path></g><g transform="translate(1080 971)"><path d="M0 -24L20.8 -12L20.8 12L0 24L-20.8 12L-20.8 -12Z" stroke="#001c00" fill="none" stroke-width="2"></path></g><g transform="translate(28 116)"><path d="M0 -24L20.8 -12L20.8 12L0 24L-20.8 12L-20.8 -12Z" stroke="#001c00" fill="none" stroke-width="2"></path></g><g transform="translate(229 88)"><path d="M0 -23L19.9 -11.5L19.9 11.5L0 23L-19.9 11.5L-19.9 -11.5Z" stroke="#001c00" fill="none" stroke-width="2"></path></g><g transform="translate(133 303)"><path d="M0 -19L16.5 -9.5L16.5 9.5L0 19L-16.5 9.5L-16.5 -9.5Z" stroke="#001c00" fill="none" stroke-width="2"></path></g><g transform="translate(519 153)"><path d="M0 -24L20.8 -12L20.8 12L0 24L-20.8 12L-20.8 -12Z" stroke="#001c00" fill="none" stroke-width="2"></path></g><g transform="translate(460 486)"><path d="M0 -23L19.9 -11.5L19.9 11.5L0 23L-19.9 11.5L-19.9 -11.5Z" stroke="#001c00" fill="none" stroke-width="2"></path></g><g transform="translate(139 687)"><path d="M0 -23L19.9 -11.5L19.9 11.5L0 23L-19.9 11.5L-19.9 -11.5Z" stroke="#001c00" fill="none" stroke-width="2"></path></g><g transform="translate(703 322)"><path d="M0 -21L18.2 -10.5L18.2 10.5L0 21L-18.2 10.5L-18.2 -10.5Z" stroke="#001c00" fill="none" stroke-width="2"></path></g><g transform="translate(74 639)"><path d="M0 -20L17.3 -10L17.3 10L0 20L-17.3 10L-17.3 -10Z" stroke="#001c00" fill="none" stroke-width="2"></path></g><g transform="translate(1804 670)"><path d="M0 -22L19.1 -11L19.1 11L0 22L-19.1 11L-19.1 -11Z" stroke="#001c00" fill="none" stroke-width="2"></path></g><g transform="translate(487 404)"><path d="M0 -24L20.8 -12L20.8 12L0 24L-20.8 12L-20.8 -12Z" stroke="#001c00" fill="none" stroke-width="2"></path></g><g transform="translate(1522 828)"><path d="M0 -21L18.2 -10.5L18.2 10.5L0 21L-18.2 10.5L-18.2 -10.5Z" stroke="#001c00" fill="none" stroke-width="2"></path></g><g transform="translate(367 553)"><path d="M0 -22L19.1 -11L19.1 11L0 22L-19.1 11L-19.1 -11Z" stroke="#001c00" fill="none" stroke-width="2"></path></g><g transform="translate(821 1013)"><path d="M0 -21L18.2 -10.5L18.2 10.5L0 21L-18.2 10.5L-18.2 -10.5Z" stroke="#001c00" fill="none" stroke-width="2"></path></g><g transform="translate(648 994)"><path d="M0 -20L17.3 -10L17.3 10L0 20L-17.3 10L-17.3 -10Z" stroke="#001c00" fill="none" stroke-width="2"></path></g><g transform="translate(1124 1064)"><path d="M0 -19L16.5 -9.5L16.5 9.5L0 19L-16.5 9.5L-16.5 -9.5Z" stroke="#001c00" fill="none" stroke-width="2"></path></g><g transform="translate(1045 380)"><path d="M0 -24L20.8 -12L20.8 12L0 24L-20.8 12L-20.8 -12Z" stroke="#001c00" fill="none" stroke-width="2"></path></g><g transform="translate(314 111)"><path d="M0 -21L18.2 -10.5L18.2 10.5L0 21L-18.2 10.5L-18.2 -10.5Z" stroke="#001c00" fill="none" stroke-width="2"></path></g><g transform="translate(391 68)"><path d="M0 -21L18.2 -10.5L18.2 10.5L0 21L-18.2 10.5L-18.2 -10.5Z" stroke="#001c00" fill="none" stroke-width="2"></path></g><g transform="translate(1119 668)"><path d="M0 -19L16.5 -9.5L16.5 9.5L0 19L-16.5 9.5L-16.5 -9.5Z" stroke="#001c00" fill="none" stroke-width="2"></path></g><g transform="translate(168 832)"><path d="M0 -23L19.9 -11.5L19.9 11.5L0 23L-19.9 11.5L-19.9 -11.5Z" stroke="#001c00" fill="none" stroke-width="2"></path></g><g transform="translate(1612 85)"><path d="M0 -19L16.5 -9.5L16.5 9.5L0 19L-16.5 9.5L-16.5 -9.5Z" stroke="#001c00" fill="none" stroke-width="2"></path></g><g transform="translate(576 865)"><path d="M0 -20L17.3 -10L17.3 10L0 20L-17.3 10L-17.3 -10Z" stroke="#001c00" fill="none" stroke-width="2"></path></g><g transform="translate(852 247)"><path d="M0 -20L17.3 -10L17.3 10L0 20L-17.3 10L-17.3 -10Z" stroke="#001c00" fill="none" stroke-width="2"></path></g><g transform="translate(914 896)"><path d="M0 -24L20.8 -12L20.8 12L0 24L-20.8 12L-20.8 -12Z" stroke="#001c00" fill="none" stroke-width="2"></path></g><g transform="translate(1272 633)"><path d="M0 -22L19.1 -11L19.1 11L0 22L-19.1 11L-19.1 -11Z" stroke="#001c00" fill="none" stroke-width="2"></path></g><g transform="translate(1724 257)"><path d="M0 -24L20.8 -12L20.8 12L0 24L-20.8 12L-20.8 -12Z" stroke="#001c00" fill="none" stroke-width="2"></path></g><g transform="translate(904 730)"><path d="M0 -24L20.8 -12L20.8 12L0 24L-20.8 12L-20.8 -12Z" stroke="#001c00" fill="none" stroke-width="2"></path></g><g transform="translate(1570 417)"><path d="M0 -24L20.8 -12L20.8 12L0 24L-20.8 12L-20.8 -12Z" stroke="#001c00" fill="none" stroke-width="2"></path></g><g transform="translate(937 600)"><path d="M0 -24L20.8 -12L20.8 12L0 24L-20.8 12L-20.8 -12Z" stroke="#001c00" fill="none" stroke-width="2"></path></g><g transform="translate(936 1050)"><path d="M0 -20L17.3 -10L17.3 10L0 20L-17.3 10L-17.3 -10Z" stroke="#001c00" fill="none" stroke-width="2"></path></g><g transform="translate(160 496)"><path d="M0 -23L19.9 -11.5L19.9 11.5L0 23L-19.9 11.5L-19.9 -11.5Z" stroke="#001c00" fill="none" stroke-width="2"></path></g><g transform="translate(1432 756)"><path d="M0 -19L16.5 -9.5L16.5 9.5L0 19L-16.5 9.5L-16.5 -9.5Z" stroke="#001c00" fill="none" stroke-width="2"></path></g><g transform="translate(1405 812)"><path d="M0 -19L16.5 -9.5L16.5 9.5L0 19L-16.5 9.5L-16.5 -9.5Z" stroke="#001c00" fill="none" stroke-width="2"></path></g><g transform="translate(219 803)"><path d="M0 -22L19.1 -11L19.1 11L0 22L-19.1 11L-19.1 -11Z" stroke="#001c00" fill="none" stroke-width="2"></path></g><g transform="translate(883 528)"><path d="M0 -19L16.5 -9.5L16.5 9.5L0 19L-16.5 9.5L-16.5 -9.5Z" stroke="#001c00" fill="none" stroke-width="2"></path></g><g transform="translate(1256 474)"><path d="M0 -21L18.2 -10.5L18.2 10.5L0 21L-18.2 10.5L-18.2 -10.5Z" stroke="#001c00" fill="none" stroke-width="2"></path></g><g transform="translate(1414 897)"><path d="M0 -23L19.9 -11.5L19.9 11.5L0 23L-19.9 11.5L-19.9 -11.5Z" stroke="#001c00" fill="none" stroke-width="2"></path></g><g transform="translate(984 395)"><path d="M0 -24L20.8 -12L20.8 12L0 24L-20.8 12L-20.8 -12Z" stroke="#001c00" fill="none" stroke-width="2"></path></g><g transform="translate(794 777)"><path d="M0 -21L18.2 -10.5L18.2 10.5L0 21L-18.2 10.5L-18.2 -10.5Z" stroke="#001c00" fill="none" stroke-width="2"></path></g><g transform="translate(465 288)"><path d="M0 -21L18.2 -10.5L18.2 10.5L0 21L-18.2 10.5L-18.2 -10.5Z" stroke="#001c00" fill="none" stroke-width="2"></path></g><g transform="translate(1260 275)"><path d="M0 -21L18.2 -10.5L18.2 10.5L0 21L-18.2 10.5L-18.2 -10.5Z" stroke="#001c00" fill="none" stroke-width="2"></path></g><g transform="translate(637 53)"><path d="M0 -24L20.8 -12L20.8 12L0 24L-20.8 12L-20.8 -12Z" stroke="#001c00" fill="none" stroke-width="2"></path></g><g transform="translate(174 232)"><path d="M0 -19L16.5 -9.5L16.5 9.5L0 19L-16.5 9.5L-16.5 -9.5Z" stroke="#001c00" fill="none" stroke-width="2"></path></g><g transform="translate(1635 756)"><path d="M0 -20L17.3 -10L17.3 10L0 20L-17.3 10L-17.3 -10Z" stroke="#001c00" fill="none" stroke-width="2"></path></g><g transform="translate(1120 581)"><path d="M0 -21L18.2 -10.5L18.2 10.5L0 21L-18.2 10.5L-18.2 -10.5Z" stroke="#001c00" fill="none" stroke-width="2"></path></g><g transform="translate(898 419)"><path d="M0 -24L20.8 -12L20.8 12L0 24L-20.8 12L-20.8 -12Z" stroke="#001c00" fill="none" stroke-width="2"></path></g><g transform="translate(262 218)"><path d="M0 -23L19.9 -11.5L19.9 11.5L0 23L-19.9 11.5L-19.9 -11.5Z" stroke="#001c00" fill="none" stroke-width="2"></path></g><g transform="translate(251 433)"><path d="M0 -24L20.8 -12L20.8 12L0 24L-20.8 12L-20.8 -12Z" stroke="#001c00" fill="none" stroke-width="2"></path></g><g transform="translate(545 523)"><path d="M0 -20L17.3 -10L17.3 10L0 20L-17.3 10L-17.3 -10Z" stroke="#001c00" fill="none" stroke-width="2"></path></g><g transform="translate(60 823)"><path d="M0 -20L17.3 -10L17.3 10L0 20L-17.3 10L-17.3 -10Z" stroke="#001c00" fill="none" stroke-width="2"></path></g><g transform="translate(676 263)"><path d="M0 -21L18.2 -10.5L18.2 10.5L0 21L-18.2 10.5L-18.2 -10.5Z" stroke="#001c00" fill="none" stroke-width="2"></path></g><g transform="translate(1643 555)"><path d="M0 -19L16.5 -9.5L16.5 9.5L0 19L-16.5 9.5L-16.5 -9.5Z" stroke="#001c00" fill="none" stroke-width="2"></path></g><g transform="translate(1750 746)"><path d="M0 -22L19.1 -11L19.1 11L0 22L-19.1 11L-19.1 -11Z" stroke="#001c00" fill="none" stroke-width="2"></path></g><g transform="translate(1907 122)"><path d="M0 -24L20.8 -12L20.8 12L0 24L-20.8 12L-20.8 -12Z" stroke="#001c00" fill="none" stroke-width="2"></path></g><g transform="translate(1784 94)"><path d="M0 -24L20.8 -12L20.8 12L0 24L-20.8 12L-20.8 -12Z" stroke="#001c00" fill="none" stroke-width="2"></path></g><g transform="translate(837 1066)"><path d="M0 -20L17.3 -10L17.3 10L0 20L-17.3 10L-17.3 -10Z" stroke="#001c00" fill="none" stroke-width="2"></path></g><g transform="translate(993 1059)"><path d="M0 -20L17.3 -10L17.3 10L0 20L-17.3 10L-17.3 -10Z" stroke="#001c00" fill="none" stroke-width="2"></path></g><g transform="translate(909 654)"><path d="M0 -19L16.5 -9.5L16.5 9.5L0 19L-16.5 9.5L-16.5 -9.5Z" stroke="#001c00" fill="none" stroke-width="2"></path></g><g transform="translate(909 15)"><path d="M0 -20L17.3 -10L17.3 10L0 20L-17.3 10L-17.3 -10Z" stroke="#001c00" fill="none" stroke-width="2"></path></g><g transform="translate(109 800)"><path d="M0 -19L16.5 -9.5L16.5 9.5L0 19L-16.5 9.5L-16.5 -9.5Z" stroke="#001c00" fill="none" stroke-width="2"></path></g><g transform="translate(1266 119)"><path d="M0 -19L16.5 -9.5L16.5 9.5L0 19L-16.5 9.5L-16.5 -9.5Z" stroke="#001c00" fill="none" stroke-width="2"></path></g><g transform="translate(127 1004)"><path d="M0 -22L19.1 -11L19.1 11L0 22L-19.1 11L-19.1 -11Z" stroke="#001c00" fill="none" stroke-width="2"></path></g><g transform="translate(372 214)"><path d="M0 -24L20.8 -12L20.8 12L0 24L-20.8 12L-20.8 -12Z" stroke="#001c00" fill="none" stroke-width="2"></path></g><g transform="translate(1497 562)"><path d="M0 -23L19.9 -11.5L19.9 11.5L0 23L-19.9 11.5L-19.9 -11.5Z" stroke="#001c00" fill="none" stroke-width="2"></path></g><g transform="translate(1638 697)"><path d="M0 -23L19.9 -11.5L19.9 11.5L0 23L-19.9 11.5L-19.9 -11.5Z" stroke="#001c00" fill="none" stroke-width="2"></path></g><g transform="translate(1847 294)"><path d="M0 -23L19.9 -11.5L19.9 11.5L0 23L-19.9 11.5L-19.9 -11.5Z" stroke="#001c00" fill="none" stroke-width="2"></path></g><g transform="translate(185 1076)"><path d="M0 -22L19.1 -11L19.1 11L0 22L-19.1 11L-19.1 -11Z" stroke="#001c00" fill="none" stroke-width="2"></path></g><g transform="translate(1278 170)"><path d="M0 -21L18.2 -10.5L18.2 10.5L0 21L-18.2 10.5L-18.2 -10.5Z" stroke="#001c00" fill="none" stroke-width="2"></path></g><g transform="translate(1302 559)"><path d="M0 -19L16.5 -9.5L16.5 9.5L0 19L-16.5 9.5L-16.5 -9.5Z" stroke="#001c00" fill="none" stroke-width="2"></path></g><g transform="translate(581 1029)"><path d="M0 -19L16.5 -9.5L16.5 9.5L0 19L-16.5 9.5L-16.5 -9.5Z" stroke="#001c00" fill="none" stroke-width="2"></path></g><g transform="translate(1784 858)"><path d="M0 -19L16.5 -9.5L16.5 9.5L0 19L-16.5 9.5L-16.5 -9.5Z" stroke="#001c00" fill="none" stroke-width="2"></path></g><g transform="translate(1164 545)"><path d="M0 -24L20.8 -12L20.8 12L0 24L-20.8 12L-20.8 -12Z" stroke="#001c00" fill="none" stroke-width="2"></path></g><g transform="translate(656 494)"><path d="M0 -23L19.9 -11.5L19.9 11.5L0 23L-19.9 11.5L-19.9 -11.5Z" stroke="#001c00" fill="none" stroke-width="2"></path></g><g transform="translate(764 386)"><path d="M0 -19L16.5 -9.5L16.5 9.5L0 19L-16.5 9.5L-16.5 -9.5Z" stroke="#001c00" fill="none" stroke-width="2"></path></g><g transform="translate(1745 548)"><path d="M0 -20L17.3 -10L17.3 10L0 20L-17.3 10L-17.3 -10Z" stroke="#001c00" fill="none" stroke-width="2"></path></g><g transform="translate(1300 1062)"><path d="M0 -22L19.1 -11L19.1 11L0 22L-19.1 11L-19.1 -11Z" stroke="#001c00" fill="none" stroke-width="2"></path></g><g transform="translate(1076 743)"><path d="M0 -22L19.1 -11L19.1 11L0 22L-19.1 11L-19.1 -11Z" stroke="#001c00" fill="none" stroke-width="2"></path></g><g transform="translate(963 107)"><path d="M0 -22L19.1 -11L19.1 11L0 22L-19.1 11L-19.1 -11Z" stroke="#001c00" fill="none" stroke-width="2"></path></g><g transform="translate(1356 616)"><path d="M0 -20L17.3 -10L17.3 10L0 20L-17.3 10L-17.3 -10Z" stroke="#001c00" fill="none" stroke-width="2"></path></g><g transform="translate(207 140)"><path d="M0 -21L18.2 -10.5L18.2 10.5L0 21L-18.2 10.5L-18.2 -10.5Z" stroke="#001c00" fill="none" stroke-width="2"></path></g><g transform="translate(280 340)"><path d="M0 -21L18.2 -10.5L18.2 10.5L0 21L-18.2 10.5L-18.2 -10.5Z" stroke="#001c00" fill="none" stroke-width="2"></path></g><g transform="translate(437 20)"><path d="M0 -21L18.2 -10.5L18.2 10.5L0 21L-18.2 10.5L-18.2 -10.5Z" stroke="#001c00" fill="none" stroke-width="2"></path></g><g transform="translate(1139 345)"><path d="M0 -20L17.3 -10L17.3 10L0 20L-17.3 10L-17.3 -10Z" stroke="#001c00" fill="none" stroke-width="2"></path></g><g transform="translate(524 672)"><path d="M0 -24L20.8 -12L20.8 12L0 24L-20.8 12L-20.8 -12Z" stroke="#001c00" fill="none" stroke-width="2"></path></g><g transform="translate(173 897)"><path d="M0 -24L20.8 -12L20.8 12L0 24L-20.8 12L-20.8 -12Z" stroke="#001c00" fill="none" stroke-width="2"></path></g><g transform="translate(631 193)"><path d="M0 -24L20.8 -12L20.8 12L0 24L-20.8 12L-20.8 -12Z" stroke="#001c00" fill="none" stroke-width="2"></path></g><g transform="translate(525 278)"><path d="M0 -22L19.1 -11L19.1 11L0 22L-19.1 11L-19.1 -11Z" stroke="#001c00" fill="none" stroke-width="2"></path></g><g transform="translate(508 330)"><path d="M0 -20L17.3 -10L17.3 10L0 20L-17.3 10L-17.3 -10Z" stroke="#001c00" fill="none" stroke-width="2"></path></g><g transform="translate(123 459)"><path d="M0 -21L18.2 -10.5L18.2 10.5L0 21L-18.2 10.5L-18.2 -10.5Z" stroke="#001c00" fill="none" stroke-width="2"></path></g><g transform="translate(539 824)"><path d="M0 -24L20.8 -12L20.8 12L0 24L-20.8 12L-20.8 -12Z" stroke="#001c00" fill="none" stroke-width="2"></path></g><g transform="translate(85 515)"><path d="M0 -23L19.9 -11.5L19.9 11.5L0 23L-19.9 11.5L-19.9 -11.5Z" stroke="#001c00" fill="none" stroke-width="2"></path></g><g transform="translate(1705 847)"><path d="M0 -19L16.5 -9.5L16.5 9.5L0 19L-16.5 9.5L-16.5 -9.5Z" stroke="#001c00" fill="none" stroke-width="2"></path></g><g transform="translate(1026 771)"><path d="M0 -23L19.9 -11.5L19.9 11.5L0 23L-19.9 11.5L-19.9 -11.5Z" stroke="#001c00" fill="none" stroke-width="2"></path></g><g transform="translate(1915 945)"><path d="M0 -19L16.5 -9.5L16.5 9.5L0 19L-16.5 9.5L-16.5 -9.5Z" stroke="#001c00" fill="none" stroke-width="2"></path></g><g transform="translate(1229 1049)"><path d="M0 -22L19.1 -11L19.1 11L0 22L-19.1 11L-19.1 -11Z" stroke="#001c00" fill="none" stroke-width="2"></path></g><g transform="translate(234 869)"><path d="M0 -19L16.5 -9.5L16.5 9.5L0 19L-16.5 9.5L-16.5 -9.5Z" stroke="#001c00" fill="none" stroke-width="2"></path></g><g transform="translate(103 143)"><path d="M0 -23L19.9 -11.5L19.9 11.5L0 23L-19.9 11.5L-19.9 -11.5Z" stroke="#001c00" fill="none" stroke-width="2"></path></g><g transform="translate(682 874)"><path d="M0 -20L17.3 -10L17.3 10L0 20L-17.3 10L-17.3 -10Z" stroke="#001c00" fill="none" stroke-width="2"></path></g><g transform="translate(466 783)"><path d="M0 -24L20.8 -12L20.8 12L0 24L-20.8 12L-20.8 -12Z" stroke="#001c00" fill="none" stroke-width="2"></path></g><g transform="translate(1671 297)"><path d="M0 -20L17.3 -10L17.3 10L0 20L-17.3 10L-17.3 -10Z" stroke="#001c00" fill="none" stroke-width="2"></path></g><g transform="translate(445 219)"><path d="M0 -21L18.2 -10.5L18.2 10.5L0 21L-18.2 10.5L-18.2 -10.5Z" stroke="#001c00" fill="none" stroke-width="2"></path></g><g transform="translate(13 46)"><path d="M0 -24L20.8 -12L20.8 12L0 24L-20.8 12L-20.8 -12Z" stroke="#001c00" fill="none" stroke-width="2"></path></g><g transform="translate(1917 292)"><path d="M0 -19L16.5 -9.5L16.5 9.5L0 19L-16.5 9.5L-16.5 -9.5Z" stroke="#001c00" fill="none" stroke-width="2"></path></g><g transform="translate(1747 946)"><path d="M0 -22L19.1 -11L19.1 11L0 22L-19.1 11L-19.1 -11Z" stroke="#001c00" fill="none" stroke-width="2"></path></g><g transform="translate(1533 738)"><path d="M0 -20L17.3 -10L17.3 10L0 20L-17.3 10L-17.3 -10Z" stroke="#001c00" fill="none" stroke-width="2"></path></g><g transform="translate(1838 117)"><path d="M0 -24L20.8 -12L20.8 12L0 24L-20.8 12L-20.8 -12Z" stroke="#001c00" fill="none" stroke-width="2"></path></g><g transform="translate(1907 778)"><path d="M0 -20L17.3 -10L17.3 10L0 20L-17.3 10L-17.3 -10Z" stroke="#001c00" fill="none" stroke-width="2"></path></g><g transform="translate(1537 21)"><path d="M0 -23L19.9 -11.5L19.9 11.5L0 23L-19.9 11.5L-19.9 -11.5Z" stroke="#001c00" fill="none" stroke-width="2"></path></g><g transform="translate(1098 914)"><path d="M0 -23L19.9 -11.5L19.9 11.5L0 23L-19.9 11.5L-19.9 -11.5Z" stroke="#001c00" fill="none" stroke-width="2"></path></g><g transform="translate(1672 403)"><path d="M0 -20L17.3 -10L17.3 10L0 20L-17.3 10L-17.3 -10Z" stroke="#001c00" fill="none" stroke-width="2"></path></g><g transform="translate(54 423)"><path d="M0 -21L18.2 -10.5L18.2 10.5L0 21L-18.2 10.5L-18.2 -10.5Z" stroke="#001c00" fill="none" stroke-width="2"></path></g><g transform="translate(1673 120)"><path d="M0 -19L16.5 -9.5L16.5 9.5L0 19L-16.5 9.5L-16.5 -9.5Z" stroke="#001c00" fill="none" stroke-width="2"></path></g><g transform="translate(356 941)"><path d="M0 -19L16.5 -9.5L16.5 9.5L0 19L-16.5 9.5L-16.5 -9.5Z" stroke="#001c00" fill="none" stroke-width="2"></path></g><g transform="translate(1290 53)"><path d="M0 -23L19.9 -11.5L19.9 11.5L0 23L-19.9 11.5L-19.9 -11.5Z" stroke="#001c00" fill="none" stroke-width="2"></path></g><g transform="translate(745 510)"><path d="M0 -21L18.2 -10.5L18.2 10.5L0 21L-18.2 10.5L-18.2 -10.5Z" stroke="#001c00" fill="none" stroke-width="2"></path></g><g transform="translate(562 443)"><path d="M0 -22L19.1 -11L19.1 11L0 22L-19.1 11L-19.1 -11Z" stroke="#001c00" fill="none" stroke-width="2"></path></g><g transform="translate(1913 840)"><path d="M0 -21L18.2 -10.5L18.2 10.5L0 21L-18.2 10.5L-18.2 -10.5Z" stroke="#001c00" fill="none" stroke-width="2"></path></g><g transform="translate(392 391)"><path d="M0 -20L17.3 -10L17.3 10L0 20L-17.3 10L-17.3 -10Z" stroke="#001c00" fill="none" stroke-width="2"></path></g><g transform="translate(713 995)"><path d="M0 -23L19.9 -11.5L19.9 11.5L0 23L-19.9 11.5L-19.9 -11.5Z" stroke="#001c00" fill="none" stroke-width="2"></path></g><g transform="translate(846 660)"><path d="M0 -21L18.2 -10.5L18.2 10.5L0 21L-18.2 10.5L-18.2 -10.5Z" stroke="#001c00" fill="none" stroke-width="2"></path></g><g transform="translate(1185 818)"><path d="M0 -24L20.8 -12L20.8 12L0 24L-20.8 12L-20.8 -12Z" stroke="#001c00" fill="none" stroke-width="2"></path></g><g transform="translate(1523 946)"><path d="M0 -20L17.3 -10L17.3 10L0 20L-17.3 10L-17.3 -10Z" stroke="#001c00" fill="none" stroke-width="2"></path></g><g transform="translate(1182 938)"><path d="M0 -22L19.1 -11L19.1 11L0 22L-19.1 11L-19.1 -11Z" stroke="#001c00" fill="none" stroke-width="2"></path></g><g transform="translate(709 813)"><path d="M0 -22L19.1 -11L19.1 11L0 22L-19.1 11L-19.1 -11Z" stroke="#001c00" fill="none" stroke-width="2"></path></g><g transform="translate(1130 13)"><path d="M0 -24L20.8 -12L20.8 12L0 24L-20.8 12L-20.8 -12Z" stroke="#001c00" fill="none" stroke-width="2"></path></g><g transform="translate(1474 302)"><path d="M0 -23L19.9 -11.5L19.9 11.5L0 23L-19.9 11.5L-19.9 -11.5Z" stroke="#001c00" fill="none" stroke-width="2"></path></g><g transform="translate(61 20)"><path d="M0 -19L16.5 -9.5L16.5 9.5L0 19L-16.5 9.5L-16.5 -9.5Z" stroke="#001c00" fill="none" stroke-width="2"></path></g><g transform="translate(1746 476)"><path d="M0 -22L19.1 -11L19.1 11L0 22L-19.1 11L-19.1 -11Z" stroke="#001c00" fill="none" stroke-width="2"></path></g><g transform="translate(614 823)"><path d="M0 -24L20.8 -12L20.8 12L0 24L-20.8 12L-20.8 -12Z" stroke="#001c00" fill="none" stroke-width="2"></path></g><g transform="translate(188 570)"><path d="M0 -23L19.9 -11.5L19.9 11.5L0 23L-19.9 11.5L-19.9 -11.5Z" stroke="#001c00" fill="none" stroke-width="2"></path></g><g transform="translate(348 673)"><path d="M0 -21L18.2 -10.5L18.2 10.5L0 21L-18.2 10.5L-18.2 -10.5Z" stroke="#001c00" fill="none" stroke-width="2"></path></g><g transform="translate(1796 918)"><path d="M0 -20L17.3 -10L17.3 10L0 20L-17.3 10L-17.3 -10Z" stroke="#001c00" fill="none" stroke-width="2"></path></g><g transform="translate(1056 601)"><path d="M0 -24L20.8 -12L20.8 12L0 24L-20.8 12L-20.8 -12Z" stroke="#001c00" fill="none" stroke-width="2"></path></g><g transform="translate(1591 283)"><path d="M0 -20L17.3 -10L17.3 10L0 20L-17.3 10L-17.3 -10Z" stroke="#001c00" fill="none" stroke-width="2"></path></g></g></svg>